<svg t="1583907253656" class="icon" viewBox="0 0 1024 1024" version="1.1" xmlns="http://www.w3.org/2000/svg" p-id="6957" width="16" height="16"><path d="M742.4 256H409.6c-56.32 0-102.4 46.08-102.4 102.4v358.4c0 56.32 46.08 102.4 102.4 102.4h332.8v25.6c0 43.52-33.28 76.8-76.8 76.8H256c-43.52 0-76.8-33.28-76.8-76.8V256c0-43.52 33.28-76.8 76.8-76.8h409.6c43.52 0 76.8 33.28 76.8 76.8z" fill="#A9CFFF" p-id="6958"></path><path d="M409.6 307.2h486.4c28.16 0 51.2 23.04 51.2 51.2v358.4c0 28.16-23.04 51.2-51.2 51.2H409.6c-28.16 0-51.2-23.04-51.2-51.2V358.4c0-28.16 23.04-51.2 51.2-51.2z" fill="#2589FF" p-id="6959"></path></svg>