<svg t="1583907971376" class="icon" viewBox="0 0 1024 1024" version="1.1" xmlns="http://www.w3.org/2000/svg" p-id="13636" width="16" height="16"><path d="M311.93 454.24m-33.51 0a33.51 33.51 0 1 0 67.02 0 33.51 33.51 0 1 0-67.02 0Z" fill="#3585F9" p-id="13637"></path><path d="M874.6 211.57h-329a254.52 254.52 0 0 0-64.05 169.18c0 141.11 114.39 255.5 255.5 255.5a254.43 254.43 0 0 0 163-58.78v-342c-0.42-11.35-8.5-24.35-25.45-23.9z" fill="#BAD4FF" p-id="13638"></path><path d="M445.98 454.24m-33.51 0a33.51 33.51 0 1 0 67.02 0 33.51 33.51 0 1 0-67.02 0Z" fill="#3585F9" p-id="13639"></path><path d="M580.02 454.24m-33.51 0a33.51 33.51 0 1 0 67.02 0 33.51 33.51 0 1 0-67.02 0Z" fill="#3585F9" p-id="13640"></path><path d="M714.07 454.24m-33.51 0a33.51 33.51 0 1 0 67.02 0 33.51 33.51 0 1 0-67.02 0Z" fill="#3585F9" p-id="13641"></path><path d="M111.96 504.42m-13.96 0a13.96 13.96 0 1 0 27.92 0 13.96 13.96 0 1 0-27.92 0Z" fill="#3585F9" p-id="13642"></path><path d="M111.96 615.97m-13.96 0a13.96 13.96 0 1 0 27.92 0 13.96 13.96 0 1 0-27.92 0Z" fill="#3585F9" p-id="13643"></path><path d="M928 234.38c-1-24.58-19.7-50.73-53.35-50.73H151.03c-14.59 0-28 5.37-37.69 15.1-9.88 9.89-15.31 23.6-15.26 38.51v267.05H126v-267c0-15.23 10.21-26.4 26.49-25.67H874.6c16.95-0.45 25 12.55 25.48 23.89v437c0 20.36-15.39 26.52-25.48 26.22L624.07 700c-9.29 0-18 4.92-24.05 12.58L513.07 857.1l-88-144A28.19 28.19 0 0 0 401 700.56l-251.89-1.93c-15.11-1.11-23.81-13.14-23.12-26V616H98.08v55.23C96.52 700 118 724.31 148.86 726.54l252.36 1.15 88 143.95A27.89 27.89 0 0 0 513.07 885h0.1A27.87 27.87 0 0 0 537 871.48L622.72 729a5.52 5.52 0 0 1 1.5-1.06l251.08-1.31c25.55 0 52.7-19 52.7-54.13zM874.62 183.65H151" fill="#3585F9" p-id="13644"></path></svg>