<svg t="1583908049382" class="icon" viewBox="0 0 1024 1024" version="1.1" xmlns="http://www.w3.org/2000/svg" p-id="14712" width="16" height="16"><path d="M264.53 518.28c-72.2 0-130.94-58.74-130.94-130.94S192.33 256.4 264.53 256.4s130.94 58.74 130.94 130.94-58.74 130.94-130.94 130.94z m0-197.88a66.94 66.94 0 1 0 66.94 66.94 67 67 0 0 0-66.94-66.94zM758.87 570.08c72.2 0 130.94 58.74 130.94 130.94S831.07 832 758.87 832s-130.94-58.78-130.94-131 58.74-130.92 130.94-130.92z m0 197.88A66.94 66.94 0 1 0 691.93 701a67 67 0 0 0 66.94 67z" fill="#2C77E5" p-id="14713"></path><path d="M437.96 352.32m32 0l387.85 0q32 0 32 32l0 0q0 32-32 32l-387.85 0q-32 0-32-32l0 0q0-32 32-32Z" fill="#1AD8E2" p-id="14714"></path><path d="M585.44 736.05m-32 0l-387.85 0q-32 0-32-32l0 0q0-32 32-32l387.85 0q32 0 32 32l0 0q0 32-32 32Z" fill="#1AD8E2" p-id="14715"></path></svg>