<svg t="1583908553255" class="icon" viewBox="0 0 1024 1024" version="1.1" xmlns="http://www.w3.org/2000/svg" p-id="15500" width="16" height="16"><path d="M670.37 558.41c-12.31 0-24.56-4.69-33.94-14.06L319.68 227.53c-18.75-18.75-18.75-49.12 0-67.88s49.12-18.75 67.88 0l316.75 316.81c18.75 18.75 18.75 49.12 0 67.88-9.38 9.38-21.63 14.07-33.94 14.07z" fill="#707070" p-id="15501"></path><path d="M353.62 878.41c-12.31 0-24.56-4.69-33.94-14.06-18.75-18.75-18.75-49.12 0-67.88l316.75-316.81c18.75-18.75 49.12-18.75 67.88 0s18.75 49.12 0 67.88l-316.75 316.8c-9.38 9.38-21.63 14.07-33.94 14.07z" fill="#707070" p-id="15502"></path></svg>