<svg t="1583904393995" class="icon" viewBox="0 0 1024 1024" version="1.1" xmlns="http://www.w3.org/2000/svg" p-id="3374" width="16" height="16"><path d="M767.98 815.98c-12.31 0-24.56-4.69-33.94-14.06l-512-512c-18.75-18.75-18.75-49.12 0-67.88s49.13-18.75 67.88 0l512 512c18.75 18.75 18.75 49.12 0 67.88-9.38 9.38-21.63 14.06-33.94 14.06z" fill="#707070" p-id="3375"></path><path d="M255.98 815.98c-12.31 0-24.56-4.69-33.94-14.06-18.75-18.75-18.75-49.12 0-67.88l512-512c18.75-18.75 49.12-18.75 67.88 0s18.75 49.12 0 67.88l-512 512c-9.38 9.38-21.63 14.06-33.94 14.06z" fill="#707070" p-id="3376"></path></svg>