<svg t="1583904879709" class="icon" viewBox="0 0 1024 1024" version="1.1" xmlns="http://www.w3.org/2000/svg" p-id="5246" width="16" height="16"><path d="M855.466667 501.333333c-17.066667 0-32 14.933333-32 32v198.4c0 70.4-59.733333 130.133333-130.133334 130.133334H356.266667c-83.2 0-151.466667-66.133333-151.466667-149.333334V358.4c0-64 53.333333-117.333333 117.333333-117.333333H490.666667c17.066667 0 32-14.933333 32-32s-14.933333-32-32-32h-168.533334c-100.266667 0-181.333333 81.066667-181.333333 181.333333v352c0 117.333333 96 213.333333 215.466667 213.333333h337.066666c106.666667 0 194.133333-87.466667 194.133334-194.133333V533.333333c0-17.066667-14.933333-32-32-32z" p-id="5247" fill="#707070"></path><path d="M680.533333 256h81.066667L458.666667 569.6c-12.8 12.8-12.8 32 0 44.8 6.4 6.4 14.933333 8.533333 21.333333 8.533333 8.533333 0 17.066667-4.266667 23.466667-10.666666L808.533333 298.666667v89.6c0 17.066667 14.933333 32 32 32s32-14.933333 32-32v-147.2c0-27.733333-23.466667-51.2-51.2-51.2h-140.8c-17.066667 0-32 14.933333-32 32s14.933333 34.133333 32 34.133333z" p-id="5248" fill="#707070"></path></svg>