<svg t="1583997988370" class="icon" viewBox="0 0 1024 1024" version="1.1" xmlns="http://www.w3.org/2000/svg" p-id="5963" width="200" height="200"><path d="M512.000512 78.657454c-243.812935 0-441.458387 194.012715-441.458387 433.342546s197.646476 433.342546 441.458387 433.342546c243.809865 0 441.456341-194.012715 441.456341-433.342546S755.810377 78.657454 512.000512 78.657454zM705.13523 539.084868 413.059082 539.084868l113.714901 111.615077c10.776438 10.579963 10.776438 27.726481 0 38.306444-10.776438 10.578939-28.247344 10.578939-39.016619 0l-156.078755-153.209404c-6.619768-6.500041-8.668427-15.385409-7.15905-23.796986-1.509377-8.411577 0.539282-17.297968 7.15905-23.795962l156.078755-153.209404c10.768251-10.579963 28.240181-10.579963 39.016619 0 10.776438 10.570753 10.776438 27.725458 0 38.298258L413.059082 484.916155l292.076148 0c15.244192 0 27.593452 12.123109 27.593452 27.083845C732.728682 526.95255 720.380446 539.084868 705.13523 539.084868z" p-id="5964" fill="#707070"></path></svg>