<svg t="1583998047733" class="icon" viewBox="0 0 1026 1024" version="1.1" xmlns="http://www.w3.org/2000/svg" p-id="6891" width="200" height="200"><path d="M671.408296 75.226387H946.726637v322.910545c0 20.469765 16.887556 37.869065 37.357321 37.869065s37.357321-16.887556 37.357321-37.869065V37.869065c0-20.469765-16.887556-37.869065-37.357321-37.869065h-312.675662c-20.469765 0-37.357321 16.887556-37.357321 37.869065s15.864068 37.357321 37.357321 37.357322zM39.916042 436.517741c20.469765 0 37.357321-16.887556 37.357321-37.869065V75.226387h275.318341c20.469765 0 37.357321-16.887556 37.357321-37.869066S374.084958 0 352.591704 0H39.916042C19.446277 0 2.558721 16.887556 2.558721 37.869065v360.779611c0 20.469765 16.887556 37.869065 37.357321 37.869065zM352.591704 948.261869H77.785107v-322.910545c0-20.469765-16.887556-37.869065-37.357321-37.869065s-37.357321 16.887556-37.357321 37.869065v360.779611c0 20.469765 16.887556 37.869065 37.357321 37.869065H353.103448c20.469765 0 37.357321-16.887556 37.357322-37.869065 0-20.981509-16.375812-37.869065-37.869066-37.869066zM988.689655 624.83958h-317.793103c-20.469765 0-37.357321 16.887556-37.357322 37.869066v319.328336c0 20.469765 16.887556 37.869065 37.357322 37.869065h317.793103c20.469765 0 37.357321-16.887556 37.357322-37.869065v-319.328336c0-20.469765-16.887556-37.869065-37.357322-37.869066z m-37.869065 319.328336h-242.566717v-244.101949h242.566717v244.101949z" fill="#F4DCCB" p-id="6892"></path><path d="M428.841579 594.646677L312.675662 500.997501h374.084958c18.422789 0 32.751624-14.84058 32.751624-33.263368v-14.328836c0-18.422789-14.84058-33.263368-32.751624-33.263368H316.257871l113.095452-94.672664c13.305347-10.746627 15.352324-31.216392 4.093953-44.521739-10.746627-13.305347-30.704648-15.352324-44.009995-4.093953l-194.462768 161.199401c-7.164418 6.14093-11.258371 14.84058-11.258371 24.051974 0 9.211394 4.605697 18.422789 11.770115 24.051974l194.462768 156.081959c5.629185 4.605697 12.793603 6.652674 19.446277 6.652673 9.211394 0 18.422789-4.093953 24.563718-11.770115 10.234883-12.281859 8.187906-31.728136-5.117441-42.474762z" fill="#FF9D4D" p-id="6893"></path></svg>