<svg t="1583998137085" class="icon" viewBox="0 0 1024 1024" version="1.1" xmlns="http://www.w3.org/2000/svg" p-id="7770" width="200" height="200"><path d="M742.832175 461.155909h125.076465a50.844091 50.844091 0 0 1 0 101.688182h-137.787488l27.455809 27.45581A50.844091 50.844091 0 1 1 685.378352 660.973188l-107.789474-106.772592a50.844091 50.844091 0 0 1 0-71.690169l107.789474-107.789474a50.844091 50.844091 0 1 1 72.198609 71.690169z m-586.740815-305.064549h711.81728a50.844091 50.844091 0 0 1 0 101.688183h-711.81728a50.844091 50.844091 0 0 1 0-101.688183z m0 305.064549h305.064549a50.844091 50.844091 0 1 1 0 101.688182h-305.064549a50.844091 50.844091 0 0 1 0-101.688182z m0 305.064548h711.81728a50.844091 50.844091 0 0 1 0 101.688183h-711.81728a50.844091 50.844091 0 0 1 0-101.688183z" fill="#707070" p-id="7771"></path></svg>