<svg t="1583998159158" class="icon" viewBox="0 0 1165 1024" version="1.1" xmlns="http://www.w3.org/2000/svg" p-id="7952" width="200" height="200"><path d="M364.967083 734.583428c-10.46084 0-20.92168-3.486947-29.057889-11.623156L11.623156 398.674234c-16.272418-16.272418-16.272418-41.84336 0-58.115778L335.909194 16.272418c16.272418-16.272418 41.84336-16.272418 58.115778 0s16.272418 41.84336 0 58.115777L98.796822 369.616345l295.22815 295.22815c16.272418 16.272418 16.272418 41.84336 0 58.115777-8.136209 8.136209-18.597049 11.623156-29.057889 11.623156z" p-id="7953" fill="#707070"></path><path d="M645.085131 727.609535c-15.110102 15.110102-38.356413 15.110102-53.466516 0L260.358683 396.349603c-15.110102-15.110102-15.110102-38.356413 0-53.466516L591.618615 11.623156c15.110102-15.110102 38.356413-15.110102 53.466516 0" p-id="7954" fill="#707070"></path><path d="M645.085131 532.340522S1104.199773 496.30874 1024 1024c0 0 216.190692-249.897843 113.906924-516.068104-51.141884-96.472191-112.744608-295.22815-492.821793-297.552781v321.961407z" p-id="7955" fill="#707070"></path></svg>