<svg t="1583999632476" class="icon" viewBox="0 0 1024 1024" version="1.1" xmlns="http://www.w3.org/2000/svg" p-id="24593" width="200" height="200"><path d="M410.358519 216.082963v239.691852H170.666667V216.082963h239.691852m20.195555-42.666667H150.471111c-12.325926 0-22.471111 10.145185-22.471111 22.471111V475.97037c0 12.325926 10.145185 22.471111 22.471111 22.471111h280.177778c12.325926 0 22.471111-10.145185 22.471111-22.471111V195.887407c-0.094815-12.325926-10.145185-22.471111-22.565926-22.471111zM410.358519 613.357037v239.691852H170.666667V613.357037h239.691852m20.195555-42.666667H150.471111c-12.325926 0-22.471111 10.145185-22.471111 22.471111V873.244444c0 12.325926 10.145185 22.471111 22.471111 22.471112h280.177778c12.325926 0 22.471111-10.145185 22.471111-22.471112V593.161481c-0.094815-12.420741-10.145185-22.471111-22.565926-22.471111zM807.632593 613.357037v239.691852H567.940741V613.357037h239.691852m20.195555-42.666667H547.745185c-12.325926 0-22.471111 10.145185-22.471111 22.471111V873.244444c0 12.325926 10.145185 22.471111 22.471111 22.471112h280.177778c12.325926 0 22.471111-10.145185 22.471111-22.471112V593.161481c-0.094815-12.420741-10.145185-22.471111-22.565926-22.471111zM678.21037 178.820741l166.684445 166.684444-166.684445 166.684445-166.684444-166.684445 166.684444-166.684444m0-51.105185c-5.688889 0-11.377778 2.180741-15.644444 6.447407L466.868148 329.860741c-8.628148 8.628148-8.628148 22.755556 0 31.383703l195.697778 195.697778c4.266667 4.266667 9.955556 6.447407 15.644444 6.447408s11.377778-2.180741 15.644445-6.447408L889.552593 361.244444c8.628148-8.628148 8.628148-22.755556 0-31.383703L693.854815 134.162963c-4.266667-4.266667-9.955556-6.447407-15.644445-6.447407z" p-id="24594" fill="#707070"></path></svg>