<svg t="1583999986508" class="icon" viewBox="0 0 1024 1024" version="1.1" xmlns="http://www.w3.org/2000/svg" p-id="30530" width="200" height="200"><path d="M512 416c-53.024 0-96 42.976-96 96s42.976 96 96 96c53.024 0 96-42.976 96-96S565.024 416 512 416zM512 576c-35.296 0-64-28.704-64-64 0-35.296 28.704-64 64-64 35.296 0 64 28.704 64 64C576 547.296 547.296 576 512 576z" p-id="30531" fill="#707070"></path><path d="M832 416c-53.024 0-96 42.976-96 96s42.976 96 96 96c53.024 0 96-42.976 96-96S885.024 416 832 416zM832 576c-35.296 0-64-28.704-64-64 0-35.296 28.704-64 64-64 35.296 0 64 28.704 64 64C896 547.296 867.296 576 832 576z" p-id="30532" fill="#707070"></path><path d="M192 416c-53.024 0-96 42.976-96 96s42.976 96 96 96c53.024 0 96-42.976 96-96S245.024 416 192 416zM192 576c-35.296 0-64-28.704-64-64 0-35.296 28.704-64 64-64 35.296 0 64 28.704 64 64C256 547.296 227.296 576 192 576z" p-id="30533" fill="#707070"></path></svg>