<svg t="1584000145943" class="icon" viewBox="0 0 1024 1024" version="1.1" xmlns="http://www.w3.org/2000/svg" p-id="31532" width="200" height="200"><path d="M511.882699 595.670402a297.830834 297.830834 0 1 1 297.70426-297.704259 298.083984 298.083984 0 0 1-297.70426 297.704259z m0-526.172026a227.834892 227.834892 0 1 0 227.834893 228.467767 228.720917 228.720917 0 0 0-227.834893-228.467767z" fill="#0060F7" p-id="31533"></path><path d="M817.434605 1023.74685h-84.931785a34.681534 34.681534 0 1 1 0-69.363067h84.931785A71.261691 71.261691 0 0 0 876.291952 924.132372a70.375667 70.375667 0 0 0 8.986821-64.553219 396.306138 396.306138 0 0 0-746.792147 0 69.742792 69.742792 0 0 0 8.98682 64.553219 71.008541 71.008541 0 0 0 58.730773 30.504561h101.259952a34.681534 34.681534 0 1 1 0 69.363067h-101.259952a141.510783 141.510783 0 0 1-115.436346-59.869947A138.472985 138.472985 0 0 1 73.047382 835.529914 465.669205 465.669205 0 0 1 950.844592 835.529914a139.232434 139.232434 0 0 1-17.593917 127.84069 142.017083 142.017083 0 0 1-115.81607 60.376246z" fill="#0060F7" p-id="31534"></path><path d="M581.498916 1021.595076h-126.57494a34.681534 34.681534 0 1 1 0-69.363067h126.57494a34.681534 34.681534 0 1 1 0 69.363067z" fill="#FF4B9D" p-id="31535"></path></svg>