<svg t="1584000221018" class="icon" viewBox="0 0 1024 1024" version="1.1" xmlns="http://www.w3.org/2000/svg" p-id="32220" width="200" height="200"><path d="M963.185778 995.555556h-57.486222c2.673778-18.631111 4.522667-37.518222 4.522666-56.888889 0-155.221333-89.002667-289.365333-218.567111-355.043556l36.835556-45.340444C870.599111 615.253333 967.111111 765.696 967.111111 938.666667c0 19.313778-1.592889 38.200889-3.925333 56.888889zM590.051556 528.241778S551.907556 540.444444 512 540.444444c-219.932444 0-398.222222 178.289778-398.222222 398.222223 0 19.370667 1.848889 38.257778 4.522666 56.888889H60.814222A457.784889 457.784889 0 0 1 56.888889 938.666667c0-205.283556 135.964444-378.709333 322.730667-435.399111C305.607111 458.382222 256 377.315556 256 284.444444a256 256 0 0 1 256-256 256 256 0 0 1 78.051556 499.797334zM512 85.333333a199.111111 199.111111 0 1 0 0 398.222223 199.111111 199.111111 0 0 0 0-398.222223z" fill="#707070" p-id="32221"></path></svg>