<svg t="1584000343467" class="icon" viewBox="0 0 1085 1024" version="1.1" xmlns="http://www.w3.org/2000/svg" p-id="33028" width="200" height="200"><path d="M829.71909 976.5888C715.533051 976.5888 622.650227 883.685898 622.650227 769.519937 622.650227 655.333898 715.533051 562.451075 829.71909 562.451075 943.905129 562.451075 1036.787953 655.333898 1036.787953 769.519937 1036.787953 883.685898 943.905129 976.5888 829.71909 976.5888M829.71909 522.294212C693.386541 522.294212 582.493365 633.187388 582.493365 769.519937 582.493365 905.852486 693.386541 1016.745663 829.71909 1016.745663 966.051639 1016.745663 1076.944816 905.852486 1076.944816 769.519937 1076.944816 633.187388 966.051639 522.294212 829.71909 522.294212M914.817506 625.334714 830.869584 708.359027 746.941741 625.334714C739.030839 617.544282 726.321192 617.584439 718.550839 625.495341 710.740329 633.366086 710.820643 646.075733 718.691388 653.886243L791.957584 726.329224 745.435859 726.329224C734.352565 726.329224 725.357427 735.324361 725.357427 746.407655 725.357427 757.511027 734.352565 766.486086 745.435859 766.486086L810.791153 766.486086 810.791153 803.671341 745.435859 803.671341C734.352565 803.671341 725.357427 812.6464 725.357427 823.749773 725.357427 834.853145 734.352565 843.828204 745.435859 843.828204L810.791153 843.828204 810.791153 910.588988C810.791153 921.692361 819.78629 930.66742 830.869584 930.66742 841.972957 930.66742 850.948016 921.692361 850.948016 910.588988L850.948016 843.828204 916.30331 843.828204C927.406682 843.828204 936.381741 834.853145 936.381741 823.749773 936.381741 812.6464 927.406682 803.671341 916.30331 803.671341L850.948016 803.671341 850.948016 766.486086 916.30331 766.486086C927.406682 766.486086 936.381741 757.511027 936.381741 746.407655 936.381741 735.324361 927.406682 726.329224 916.30331 726.329224L869.801663 726.329224 943.04778 653.886243C950.938604 646.075733 951.018918 633.366086 943.208408 625.495341 935.417976 617.584439 922.748486 617.544282 914.817506 625.334714ZM592.71931 473.509647C594.044486 481.01898 599.50582 487.142902 606.834447 489.291294 628.278212 495.616 649.400722 503.667451 669.659859 513.224784 672.430682 514.529882 675.342055 515.132235 678.213271 515.132235 685.742682 515.132235 692.950839 510.875608 696.384251 503.627294 701.102682 493.588078 696.825976 481.621333 686.806839 476.902902 676.406212 472.003765 665.8048 467.445961 655.042761 463.309804 712.728094 413.05349 745.716957 340.650667 745.716957 264.111686 745.716957 216.465569 732.906918 169.803294 708.672251 129.144471 702.990055 119.607216 690.681976 116.454902 681.144722 122.157176 671.627545 127.839373 668.49531 140.147451 674.177506 149.684706 694.717741 184.139294 705.560094 223.713882 705.560094 264.111686 705.560094 329.968941 676.767624 392.192 627.615624 433.995294L600.610133 453.852863C594.466133 458.37051 591.414212 466.000314 592.71931 473.509647ZM481.621333 40.156863C522.139608 40.156863 561.834667 51.099608 596.429804 71.780392 605.926902 77.422431 618.295216 74.37051 623.977412 64.853333 629.659608 55.336157 626.567529 43.008 617.050353 37.305725 576.230902 12.910431 529.408 0 481.621333 0 335.992471 0 217.509647 118.482824 217.509647 264.111686 217.509647 341.413647 250.719373 413.374745 307.96298 463.169255 124.847686 534.166588 0 713.768157 0 912.76549 0 923.868863 8.975059 932.843922 20.078431 932.843922 31.161725 932.843922 40.156863 923.868863 40.156863 912.76549 40.156863 718.366118 170.064314 544.185725 356.070902 489.150745 363.620392 486.922039 369.162039 480.496941 370.266353 472.70651 371.370667 464.916078 367.816784 457.205961 361.190902 452.98949 296.357647 411.547608 257.66651 340.931765 257.66651 264.111686 257.66651 140.629333 358.13898 40.156863 481.621333 40.156863Z" p-id="33029" fill="#707070"></path></svg>