<svg t="1584000924620" class="icon" viewBox="0 0 1024 1024" version="1.1" xmlns="http://www.w3.org/2000/svg" p-id="36671" width="200" height="200"><path d="M928.057881 522.622942c-20.193925 0-36.579103 16.385179-36.579103 36.573987L891.478777 878.961696c0 6.716982-5.472642 12.19474-12.1886 12.19474L151.817708 891.156436c-6.716982 0-12.19474-5.478781-12.19474-12.19474L139.622968 155.542542c0-6.731308 5.478781-12.19474 12.19474-12.19474l337.491501 0c20.193925 0 36.579103-16.372899 36.579103-36.57808 0-20.205181-16.385179-36.573987-36.579103-36.573987L151.817708 70.195735c-47.057759 0-85.346807 38.289048-85.346807 85.346807L66.470901 878.961696c0 47.057759 38.294165 85.346807 85.346807 85.346807L879.290177 964.308503c47.050596 0 85.345784-38.289048 85.345784-85.346807L964.635961 559.196928C964.635961 539.00812 948.251805 522.622942 928.057881 522.622942z" p-id="36672" fill="#707070"></path><path d="M956.281689 83.337033c-5.02341-5.500271-12.051477-9.386788-21.089317-10.371208-3.462868-0.660032-7.02909-0.783853-10.603499-0.251733-87.690178 0-175.380356 0-263.070534 0-46.829562 0-46.829562 72.618924 0 72.618924 61.073984 0 122.146944 0 183.220928 0C712.658066 281.366226 580.577888 417.400458 448.497711 553.434691c-32.621978 33.598212 18.680455 84.99479 51.349505 51.349505 131.48052-135.415133 262.960017-270.831288 394.440537-406.246421 0 59.854203 0 119.709429 0 179.563632 0 46.829562 72.618924 46.829562 72.618924 0 0-89.692788 0-179.385577 0-269.077342C966.905654 97.739045 962.682469 89.183182 956.281689 83.337033z" p-id="36673" fill="#707070"></path></svg>