<svg t="1584001286370" class="icon" viewBox="0 0 1024 1024" version="1.1" xmlns="http://www.w3.org/2000/svg" p-id="38581" width="200" height="200"><path d="M872 520.41304356v295.74782577a75.40434756 75.40434756 0 0 1-75.40434756 75.40434844H227.40434756A75.40434756 75.40434756 0 0 1 152 816.16086933V246.96956533c0-41.63478223 33.76956533-75.40434756 75.40434756-75.40434756h271.91739199a31.30434756 31.30434756 0 1 0 0-62.60869599H227.40434756A138.01304356 138.01304356 0 0 0 89.39130401 246.96956533v569.191304A138.01304356 138.01304356 0 0 0 227.40434756 954.17391289h569.19130488a138.01304356 138.01304356 0 0 0 138.01304355-138.01304356v-295.74782577a31.30434756 31.30434756 0 1 0-62.60869599 0z" p-id="38582" fill="#707070"></path><path d="M707.65217422 242.35217422a187.82608711 187.82608711 0 0 0-187.82608711 187.82608623v196.66956533a31.30434756 31.30434756 0 1 0 62.60869511 0V430.17826045a125.21739112 125.21739112 0 0 1 125.217392-125.21739111h185.24347822a35.21739112 35.21739112 0 0 0 27-57.83478223L780.63043467 81.01739112a31.30434756 31.30434756 0 0 0-48.01304355 40.2260871l101.54347821 121.108696H707.65217422z" p-id="38583" fill="#707070"></path></svg>