<svg t="1584001374473" class="icon" viewBox="0 0 1024 1024" version="1.1" xmlns="http://www.w3.org/2000/svg" p-id="40454" width="200" height="200"><path d="M511.951499 1023.999903A511.951499 511.951499 0 1 1 939.982877 793.074213a27.424243 27.424243 0 0 1-45.933184-30.137596 456.32777 456.32777 0 1 0-136.34597 134.601672 27.424243 27.424243 0 1 1 29.071635 46.2239 510.110295 510.110295 0 0 1-274.823859 80.237714z" p-id="40455" fill="#707070"></path><path d="M340.622661 733.283549a27.521148 27.521148 0 0 1-19.38109-46.902238L663.802341 343.723635a27.424243 27.424243 0 1 1 38.76218 38.762181L360.003751 725.240397a27.424243 27.424243 0 0 1-19.38109 8.043152z" p-id="40456" fill="#707070"></path><path d="M683.183431 733.283549a27.327337 27.327337 0 0 1-19.38109-8.043152L321.144665 382.582721a27.521148 27.521148 0 1 1 38.762181-38.76218L702.564521 686.381311a27.521148 27.521148 0 0 1-19.38109 46.902238z" p-id="40457" fill="#707070"></path></svg>