<svg t="1584001469872" class="icon" viewBox="0 0 1024 1024" version="1.1" xmlns="http://www.w3.org/2000/svg" p-id="41330" width="200" height="200"><path d="M383.284965 211.603349C247.673357 263.098163 151.288147 394.292158 151.288147 547.969213c0 198.634989 161.033603 359.688036 359.688036 359.688036s359.688036-161.053046 359.688036-359.688036c0-153.676032-96.385211-284.870026-231.988632-336.365864-0.596588 0.034792-1.194198 0.034792-1.809205 0.034792-15.893992 0-28.785603-12.854772-28.785603-28.767184 0-15.877619 12.891611-28.768207 28.785603-28.768207l0-0.280386c0.298805 0.106424 0.615007 0.210801 0.896416 0.280386 6.040576 0.210801 11.590989 2.248204 16.122189 5.550413 158.031223 58.20361 270.732028 210.087832 270.732028 388.31605 0 228.423433-185.201026 413.641855-413.641855 413.641855-228.449016 0-413.641855-185.218422-413.641855-413.641855 0-178.228217 112.711038-330.11244 270.732028-388.31605 4.54041-3.302209 10.089799-5.339612 16.114003-5.550413 0.297782-0.069585 0.605797-0.174985 0.904603-0.280386l0 0.280386c15.893992 0 28.776394 12.891611 28.776394 28.768207 0 15.912411-12.882402 28.767184-28.776394 28.767184C384.479163 211.638141 383.882576 211.638141 383.284965 211.603349zM475.006969 98.42773c0-19.916609 15.9646-36.038798 35.96819-36.038798 19.863397 0 35.96819 16.122189 35.96819 36.038798l0 359.51305c0 19.914562-15.9646 36.07359-35.96819 36.07359-19.863397 0-35.96819-16.159028-35.96819-36.07359L475.006969 98.42773z" p-id="41331" fill="#707070"></path></svg>