<svg t="1584001498121" class="icon" viewBox="0 0 1024 1024" version="1.1" xmlns="http://www.w3.org/2000/svg" p-id="42118" width="200" height="200"><path d="M512.3062 64.5263c-247.1844 0-447.5208 200.3569-447.5208 447.5402 0 247.1639 200.3374 447.5392 447.5208 447.5392 247.1823 0 447.5587-200.3763 447.5587-447.5392C959.8659 264.8842 759.4885 64.5263 512.3062 64.5263zM512.3062 918.9202c-224.3359 0-406.8342-182.5167-406.8342-406.8536 0-224.3359 182.4983-406.8526 406.8342-406.8526 224.3553 0 406.871 182.5167 406.871 406.8526C919.1772 736.4035 736.6615 918.9202 512.3062 918.9202zM648.3937 375.9585c-17.3629-17.6015-45.4953-17.6015-62.8992 0l-73.3204 74.3352-73.3358-74.3352c-17.3629-17.6015-45.4953-17.6015-62.8593 0-17.3629 17.623-17.3629 46.1312 0 63.7338l73.3297 74.3363-69.1569 70.1153c-0.2028 0.2048-0.3912 0.4188-0.5888 0.6277l-1.4766 1.4981 0.0604 0.0625c-15.319 17.7019-14.6575 44.6341 2.006 61.5649 16.6615 16.853 43.2712 17.5227 60.7365 2.0296l0.0543 0.0553 1.1581-1.1735c0.3174-0.3031 0.638-0.599 0.9482-0.9124l69.1497-70.1133 69.163 70.1133c17.364 17.5616 45.4554 17.5616 62.8593 0 17.323-17.6425 17.323-46.1701 0-63.7532l-69.1569-70.101 73.3286-74.3506C665.7577 422.0897 665.7577 393.5816 648.3937 375.9585z" p-id="42119" fill="#707070"></path></svg>