<svg t="1584001658905" class="icon" viewBox="0 0 1024 1024" version="1.1" xmlns="http://www.w3.org/2000/svg" p-id="45014" width="200" height="200"><path d="M734.628171 1023.872016H298.074741A133.231346 133.231346 0 0 1 167.403075 888.72091V307.929509a35.067617 35.067617 0 1 1 70.135233 0v580.791401a62.968129 62.968129 0 0 0 60.536433 65.143857h436.55343a62.968129 62.968129 0 0 0 60.536433-65.143857V435.785527a35.067617 35.067617 0 1 1 70.135234 0v452.935383A133.231346 133.231346 0 0 1 734.628171 1023.872016z" fill="#0060F7" p-id="45015"></path><path d="M905.102862 308.953381H118.897138a35.195601 35.195601 0 0 1 0-70.263217h786.205724a35.195601 35.195601 0 0 1 0 70.263217z" fill="#0060F7" p-id="45016"></path><path d="M703.784027 294.363205a35.195601 35.195601 0 0 1-35.195601-35.067617v-32.507936a156.652418 156.652418 0 1 0-313.176852 0v32.507936a35.195601 35.195601 0 0 1-70.263218 0v-32.507936a226.915636 226.915636 0 0 1 453.703288 0v32.507936A35.067617 35.067617 0 0 1 703.784027 294.363205z" fill="#0060F7" p-id="45017"></path><path d="M641.327834 811.290589a35.067617 35.067617 0 0 1-35.067617-35.067617V441.288839a35.067617 35.067617 0 1 1 70.135234 0v334.934133a35.067617 35.067617 0 0 1-35.067617 35.067617zM485.059368 687.658043A35.067617 35.067617 0 0 1 449.991751 652.71841V441.288839a35.067617 35.067617 0 0 1 70.135233 0V652.71841a35.067617 35.067617 0 0 1-35.067616 34.939633z" fill="#FF4B9D" p-id="45018"></path></svg>