<svg t="1584001690200" class="icon" viewBox="0 0 1024 1024" version="1.1" xmlns="http://www.w3.org/2000/svg" p-id="45163" width="200" height="200"><path d="M784.5 1000.5h-544c-57.3 0-104-46.7-104-104v-592c0-13.3 10.7-24 24-24s24 10.7 24 24v592c0 30.9 25.1 56 56 56h544c30.9 0 56-25.1 56-56v-592c0-13.3 10.7-24 24-24s24 10.7 24 24v592c0 57.3-46.7 104-104 104z" fill="#1037AC" p-id="45164"></path><path d="M512.5 808.5c-13.3 0-24-10.7-24-24v-352c0-13.3 10.7-24 24-24s24 10.7 24 24v352c0 13.3-10.7 24-24 24zM352.5 808.5c-13.3 0-24-10.7-24-24v-352c0-13.3 10.7-24 24-24s24 10.7 24 24v352c0 13.3-10.7 24-24 24zM672.5 808.5c-13.3 0-24-10.7-24-24v-352c0-13.3 10.7-24 24-24s24 10.7 24 24v352c0 13.3-10.7 24-24 24z" fill="#7A7EF5" p-id="45165"></path><path d="M672.5 232.5c-13.3 0-24-10.7-24-24v-136h-272v136c0 13.3-10.7 24-24 24s-24-10.7-24-24v-160c0-13.3 10.7-24 24-24h320c13.3 0 24 10.7 24 24v160c0 13.3-10.7 24-24 24z" fill="#1037AC" p-id="45166"></path><path d="M960.5 232.5h-896c-13.3 0-24-10.7-24-24s10.7-24 24-24h896c13.3 0 24 10.7 24 24s-10.7 24-24 24z" fill="#1037AC" p-id="45167"></path></svg>