<svg t="1584001721695" class="icon" viewBox="0 0 1024 1024" version="1.1" xmlns="http://www.w3.org/2000/svg" p-id="45310" width="200" height="200"><path d="M601.6 246.8c-17.8 0-32.3-14.4-32.3-32.3 0-31.6-25.7-57.4-57.4-57.4s-57.4 25.7-57.4 57.4c0 17.8-14.4 32.3-32.3 32.3s-32.3-14.4-32.3-32.3c0-67.2 54.7-121.9 121.9-121.9s121.9 54.7 121.9 121.9c0.2 17.9-14.2 32.3-32.1 32.3z" fill="#686868" p-id="45311"></path><path d="M855.7 266.6H168.3c-17.8 0-32.3-14.4-32.3-32.3s14.4-32.3 32.3-32.3h687.4c17.8 0 32.3 14.4 32.3 32.3s-14.5 32.3-32.3 32.3z" fill="#686868" p-id="45312"></path><path d="M440.3 732.7c-17.8 0-32.3-14.4-32.3-32.3V503.2c0-17.8 14.4-32.3 32.3-32.3s32.3 14.4 32.3 32.3v197.2c0 17.8-14.5 32.3-32.3 32.3zM583.7 732.7c-17.8 0-32.3-14.4-32.3-32.3V503.2c0-17.8 14.4-32.3 32.3-32.3s32.3 14.4 32.3 32.3v197.2c0 17.8-14.5 32.3-32.3 32.3z" fill="#2BA8FC" p-id="45313"></path><path d="M648.9 931.3H375.1c-85.4 0-155-69.5-155-155v-411c0-17.8 14.4-32.3 32.3-32.3s32.3 14.4 32.3 32.3v411.1c0 49.9 40.6 90.4 90.4 90.4h273.8c49.9 0 90.4-40.6 90.4-90.4V365.3c0-17.8 14.4-32.3 32.3-32.3s32.3 14.4 32.3 32.3v411.1c0 85.4-69.5 154.9-155 154.9z" fill="#686868" p-id="45314"></path></svg>