<svg t="1584004377419" class="icon" viewBox="0 0 1024 1024" version="1.1" xmlns="http://www.w3.org/2000/svg" p-id="49632" width="200" height="200"><path d="M943.8 472.1L600 143.4c-26.7-25.5-61.8-39.3-98.7-38.9-36.9 0.4-71.7 15-97.8 41.2L79.7 469.4c-12.5 12.5-12.5 32.8 0 45.3s32.8 12.5 45.3 0l33.1-33.1v287.7c0 82.8 67.4 150.2 150.2 150.2h409.1c82.8 0 150.2-67.4 150.2-150.2V570.6c0-17.7-14.3-32-32-32s-32 14.3-32 32v198.7c0 47.6-38.7 86.2-86.2 86.2H308.3c-47.6 0-86.2-38.7-86.2-86.2V423.9c0-2-0.2-3.9-0.5-5.8l227.2-227.2c14.2-14.2 33.2-22.2 53.3-22.4 20.1-0.2 39.2 7.3 53.8 21.2l343.8 328.6c6.2 5.9 14.2 8.9 22.1 8.9 8.4 0 16.9-3.3 23.1-9.9 12.1-12.8 11.7-33-1.1-45.2z" p-id="49633" fill="#707070"></path></svg>