<svg t="1584005044879" class="icon" viewBox="0 0 1024 1024" version="1.1" xmlns="http://www.w3.org/2000/svg" p-id="59942" width="200" height="200"><path d="M843.4 960H200.6c-24.6 0-47.5-11.2-64.5-31.6-15.8-19.2-24.6-44.4-24.6-71V224.6c0-26.6 8.8-51.8 24.7-71 16.9-20.4 39.8-31.6 64.4-31.6h30.2c12.7 0 23 10.3 23 23s-10.3 23-23 23h-30.2c-10.7 0-21 5.3-29.1 15-9 10.9-14 25.7-14 41.6v632.7c0 15.9 5 30.7 14.1 41.6 8 9.7 18.4 15 29.1 15h642.7c10.7 0 21-5.3 29.1-15 9.1-10.9 14.1-25.7 14.1-41.6V224.6c0-15.9-5-30.7-14.1-41.6-8-9.7-18.4-15-29.1-15h-31.4c-12.7 0-23-10.3-23-23s10.3-23 23-23h31.4c24.6 0 47.5 11.2 64.5 31.6 15.9 19.2 24.7 44.4 24.7 71v632.7c0 26.6-8.8 51.8-24.7 71-17 20.5-39.9 31.7-64.5 31.7zM646.5 168H398.5c-12.7 0-23-10.3-23-23s10.3-23 23-23h248c12.7 0 23 10.3 23 23s-10.3 23-23 23z" fill="#707070" p-id="59943"></path><path d="M316.5 62c12.7 0 23 10.3 23 23v155c0 12.7-10.3 23-23 23s-23-10.3-23-23V85c0-12.7 10.3-23 23-23zM727.5 62c12.7 0 23 10.3 23 23v155c0 12.7-10.3 23-23 23s-23-10.3-23-23V85c0-12.7 10.3-23 23-23z" fill="#707070" p-id="59944"></path><path d="M136 267.5c0-12.7 10.3-23 23-23h725c12.7 0 23 10.3 23 23s-10.3 23-23 23h-725c-12.7 0-23-10.3-23-23zM527 821c-58.6 0-113.8-22.8-155.2-64.3S307.5 660.1 307.5 601.5c0-58.6 22.8-113.8 64.3-155.2S468.4 382 527 382c12.7 0 23 10.3 23 23s-10.3 23-23 23C431.3 428 353.5 505.8 353.5 601.5S431.3 775 527 775 700.5 697.2 700.5 601.5c0-12.7 10.3-23 23-23s23 10.3 23 23c0 58.6-22.8 113.8-64.3 155.2S585.6 821 527 821z" fill="#707070" p-id="59945"></path><path d="M652.4 609.3H531.2c-12.7 0-23-10.3-23-23V407.5c0-12.7 10.3-23 23-23s23 10.3 23 23v155.8h98.1c12.7 0 23 10.3 23 23 0.1 12.7-10.2 23-22.9 23z" fill="#707070" p-id="59946"></path></svg>