<svg t="1584005111743" class="icon" viewBox="0 0 1024 1024" version="1.1" xmlns="http://www.w3.org/2000/svg" p-id="60896" width="200" height="200"><path d="M929.493333 73.130667l-187.413333 0L742.08 24.874667c0-11.776-9.536-21.333333-21.333333-21.333333s-21.333333 9.557333-21.333333 21.333333l0 48.256L324.565333 73.130667 324.565333 24.874667c0-11.776-9.557333-21.333333-21.333333-21.333333s-21.333333 9.557333-21.333333 21.333333l0 48.256L129.28 73.130667c-55.210667 0-125.717333 70.485333-125.717333 125.717333l0 695.914667c0 55.210667 70.506667 125.717333 125.717333 125.717333L929.493333 1020.48c59.349333 0 90.965333-73.002667 90.965333-125.717333L1020.458667 198.826667C1020.458667 146.133333 988.864 73.130667 929.493333 73.130667zM129.28 115.797333l152.64 0 0 152.64c0 11.776 9.557333 21.333333 21.333333 21.333333s21.333333-9.557333 21.333333-21.333333L324.586667 115.797333l374.848 0 0 152.64c0 11.776 9.536 21.333333 21.333333 21.333333s21.333333-9.557333 21.333333-21.333333L742.101333 115.797333l187.413333 0c26.752 0 48.298667 45.418667 48.298667 83.050667l0 187.434667L46.229333 386.282667 46.229333 198.826667C46.229333 166.229333 96.661333 115.797333 129.28 115.797333zM929.493333 977.792 129.28 977.792c-31.829333 0-83.050667-51.221333-83.050667-83.050667L46.229333 428.928l931.562667 0 0 465.813333C977.792 932.352 956.245333 977.792 929.493333 977.792z" p-id="60897" fill="#707070"></path></svg>