<svg t="1584067891081" class="icon" viewBox="0 0 1024 1024" version="1.1" xmlns="http://www.w3.org/2000/svg" p-id="1994" width="200" height="200"><path d="M444.8 515.2l-25.6 83.2c0 3.2 3.2 6.4 6.4 6.4l89.6-25.6L902.4 192c3.2-3.2 3.2-6.4 0-9.6l-60.8-60.8c-3.2-3.2-6.4-3.2-9.6 0L448 508.8c-3.2 3.2-3.2 3.2-3.2 6.4zM908.8 166.4c3.2 3.2 12.8 6.4 16 0l28.8-28.8c3.2-3.2 3.2-12.8 0-16l-51.2-51.2c-3.2-3.2-12.8-6.4-16 0l-28.8 28.8c-3.2 3.2-3.2 12.8 0 16l51.2 51.2z" p-id="1995" fill="#707070"></path><path d="M928 352c-19.2 0-32 12.8-32 32v480c0 19.2-12.8 32-32 32H160c-19.2 0-32-12.8-32-32V160c0-19.2 12.8-32 32-32h480c19.2 0 32-12.8 32-32s-12.8-32-32-32H160C105.6 64 64 105.6 64 160v704c0 54.4 41.6 96 96 96h704c54.4 0 96-41.6 96-96V384c0-19.2-12.8-32-32-32z" p-id="1996" fill="#707070"></path></svg>