<svg t="1584068143356" class="icon" viewBox="0 0 1024 1024" version="1.1" xmlns="http://www.w3.org/2000/svg" p-id="2384" width="200" height="200"><path d="M909.8 959.5H115.2c-27.4 0-49.7-22.3-49.7-49.7V115.2c0-27.4 22.3-49.7 49.7-49.7h451.4c11.8 0 21.3 9.5 21.3 21.3s-9.5 21.3-21.3 21.3H115.2c-3.8 0-7.1 3.2-7.1 7.1v794.6c0 3.8 3.2 7.1 7.1 7.1h794.6c2.1 0 3.6-0.9 4.3-1.7 0.5-0.6 0.6-1 0.5-1.8l-0.3-3.6V457.2c0-11.8 9.5-21.3 21.3-21.3s21.3 9.5 21.3 21.3v451.1c1.5 12.4-2.1 24.8-10.1 34.3-9.2 10.7-22.6 16.9-37 16.9z" fill="#707070" p-id="2385"></path><path d="M378.6 666.5c-5.4 0-10.9-2.1-15-6.2-8.3-8.3-8.3-21.8 0-30.1L920.7 72.9c8.3-8.3 21.8-8.3 30.1 0s8.3 21.8 0 30.1L393.6 660.2c-4.1 4.2-9.6 6.3-15 6.3z" fill="#707070" p-id="2386"></path></svg>