<svg t="1584068655312" class="icon" viewBox="0 0 1024 1024" version="1.1" xmlns="http://www.w3.org/2000/svg" p-id="2799" width="200" height="200"><path d="M800.8 956.7H232.7c-89.3 0-162-72.7-162-162V226.6c0-89.3 72.7-162 162-162h218.5c17.7 0 32 14.3 32 32s-14.3 32-32 32H232.7c-54 0-98 44-98 98v568.1c0 54 44 98 98 98h568.1c54 0 98-44 98-98V586.6c0-17.7 14.3-32 32-32s32 14.3 32 32v208.1c0 89.3-72.7 162-162 162z" p-id="2800" fill="#707070"></path><path d="M525 669.4c-8.2 0-16.4-3.1-22.6-9.4L368 525.6c-12.5-12.5-12.5-32.8 0-45.3L756.2 92.2c8.7-8.7 33-29 69.9-29 26.5 0 51.4 10.3 70 29l39.8 39.8c38.6 38.6 38.6 101.3 0 139.9L547.6 660c-6.2 6.3-14.4 9.4-22.6 9.4zM435.9 503l89.1 89.1 365.6-365.6c13.6-13.6 13.6-35.7 0-49.3l-39.8-39.8-0.1-0.1c-6.5-6.5-15.2-10.1-24.6-10.1-13.4 0-22.3 7.8-24.7 10.2L435.9 503z" p-id="2801" fill="#707070"></path><path d="M350.8 709.2c-8.4 0-16.5-3.3-22.6-9.4-8.1-8.1-11.2-19.9-8.3-30.9L366.2 496c3-11 11.6-19.7 22.6-22.6 11-3 22.8 0.2 30.9 8.3l126.6 126.6c8.1 8.1 11.2 19.9 8.3 30.9-3 11-11.6 19.7-22.6 22.6l-172.9 46.3c-2.8 0.7-5.5 1.1-8.3 1.1z m62.9-143.1L396 632l65.8-17.6-48.1-48.3zM848 316c-8.3 0-16.6-3.2-22.8-9.6L707 186.1c-12.4-12.6-12.2-32.9 0.4-45.3 12.6-12.4 32.9-12.2 45.3 0.4l118.2 120.3c12.4 12.6 12.2 32.9-0.4 45.3-6.3 6.1-14.4 9.2-22.5 9.2z" p-id="2802" fill="#707070"></path></svg>