<svg t="1584068889191" class="icon" viewBox="0 0 1024 1024" version="1.1" xmlns="http://www.w3.org/2000/svg" p-id="5577" width="200" height="200"><path d="M483.2 822.4v-256c0-12.8 12.8-25.6 25.6-25.6s25.6 12.8 25.6 25.6v256l51.2-38.4c12.8-6.4 25.6-6.4 38.4 6.4 12.8 19.2 6.4 32-6.4 38.4l-96 70.4c0 6.4-6.4 6.4-12.8 6.4s-12.8 0-12.8-6.4l-96-70.4c-12.8-6.4-12.8-25.6-6.4-38.4 6.4-12.8 25.6-12.8 38.4-6.4l51.2 38.4zM278.4 784h-19.2C144 784 54.4 681.6 54.4 560c0-128 96-230.4 211.2-224C304 208 412.8 118.4 534.4 118.4 668.8 118.4 784 220.8 816 368c89.6 19.2 153.6 102.4 153.6 204.8C969.6 688 886.4 784 784 784c-32 0-96 0-166.4-57.6-12.8-12.8-12.8-32 0-38.4 12.8-12.8 25.6-12.8 38.4 0 51.2 51.2 96 44.8 121.6 44.8h6.4c76.8 0 134.4-70.4 134.4-160 0-83.2-57.6-153.6-128-160-12.8 0-19.2-12.8-25.6-19.2-19.2-128-115.2-224-230.4-224-102.4 0-198.4 83.2-224 198.4 0 12.8-12.8 19.2-32 19.2h-25.6c-83.2 0-147.2 76.8-147.2 172.8 0 96 64 172.8 147.2 172.8h12.8c25.6 0 57.6 0 102.4-44.8 12.8-12.8 25.6-12.8 38.4 0 12.8 12.8 12.8 25.6 0 38.4-51.2 51.2-96 57.6-128 57.6z" p-id="5578" fill="#707070"></path></svg>