<svg t="1584076783801" class="icon" viewBox="0 0 1024 1024" version="1.1" xmlns="http://www.w3.org/2000/svg" p-id="5759" width="200" height="200"><path d="M525.1 606.5c-5.8 8-17.2 9.8-25.2 3.9L355.2 504.8c-8-5.8-9.8-17.2-3.9-25.2 5.8-8 17.2-9.8 25.2-3.9l144.7 105.7c8 5.8 9.7 17.1 3.9 25.1z" fill="#707070" p-id="5760"></path><path d="M497 606.5c5.8 8 17.2 9.8 25.2 3.9L658 511.2c8-5.8 9.8-17.2 3.9-25.2-5.8-8-17.2-9.8-25.2-3.9l-135.9 99.2c-7.9 5.9-9.7 17.2-3.8 25.2z" fill="#707070" p-id="5761"></path><path d="M512.1 600.1c-9.1 0-16.5-7.4-16.5-16.5v-405c0-9.1 7.4-16.5 16.5-16.5s16.5 7.4 16.5 16.5v405c0 9.1-7.4 16.5-16.5 16.5z" fill="#707070" p-id="5762"></path><path d="M713.2 186.9h109.7c27.5 0 49.9 22.3 49.9 49.9v581.5c0 27.5-22.3 49.9-49.9 49.9H201.1c-27.5 0-49.9-22.3-49.9-49.9V236.8c0-27.5 22.3-49.9 49.9-49.9h109.7c7.7 0 14-6.3 14-14s-6.3-14-14-14H201.1c-43 0-77.9 34.9-77.9 77.9v581.5c0 43 34.9 77.9 77.9 77.9H823c43 0 77.9-34.9 77.9-77.9V236.8c0-43-34.9-77.9-77.9-77.9H713.2c-7.7 0-14 6.3-14 14s6.3 14 14 14z" fill="#707070" p-id="5763"></path></svg>